<svg width="579" height="386" viewBox="0 0 579 386" fill="none" xmlns="http://www.w3.org/2000/svg">
<g id="Group">
<g id="Group_2">
<g id="Group_3">
<path id="Vector" d="M552.5 0.5H26.5C12.1406 0.5 0.5 12.1406 0.5 26.5V359.5C0.5 373.859 12.1406 385.5 26.5 385.5H552.5C566.859 385.5 578.5 373.859 578.5 359.5V26.5C578.5 12.1406 566.859 0.5 552.5 0.5Z" fill="black"/>
<path id="Vector_2" d="M552.5 0.5H26.5C12.1406 0.5 0.5 12.1406 0.5 26.5V359.5C0.5 373.859 12.1406 385.5 26.5 385.5H552.5C566.859 385.5 578.5 373.859 578.5 359.5V26.5C578.5 12.1406 566.859 0.5 552.5 0.5Z" fill="#777777"/>
</g>
<path id="Vector_3" d="M551.73 2.5H27.5C13.6929 2.5 2.5 13.6929 2.5 27.5V359.365C2.5 373.172 13.6929 384.365 27.5 384.365H551.73C565.537 384.365 576.73 373.172 576.73 359.365V27.5C576.73 13.6929 565.537 2.5 551.73 2.5Z" fill="url(#paint0_linear_4_3)"/>
<g id="Group_4">
<path id="Vector_4" opacity="0.1" d="M520.993 16.803H59.53C56.7686 16.803 54.53 19.0416 54.53 21.803V365.559C54.53 368.32 56.7686 370.559 59.53 370.559H520.993C523.754 370.559 525.993 368.32 525.993 365.559V21.803C525.993 19.0416 523.754 16.803 520.993 16.803Z" fill="#2A2A2A"/>
<mask id="mask0_4_3" style="mask-type:alpha" maskUnits="userSpaceOnUse" x="21" y="19" width="537" height="347">
<g id="f">
<path id="Vector_5" d="M549.53 19.803H29.53C25.1118 19.803 21.53 23.3847 21.53 27.803V357.803C21.53 362.221 25.1118 365.803 29.53 365.803H549.53C553.948 365.803 557.53 362.221 557.53 357.803V27.803C557.53 23.3847 553.948 19.803 549.53 19.803Z" fill="white"/>
</g>
</mask>
<g mask="url(#mask0_4_3)">
<path id="Vector_6" d="M549.53 19.803H29.53C25.1118 19.803 21.53 23.3847 21.53 27.803V357.803C21.53 362.221 25.1118 365.803 29.53 365.803H549.53C553.948 365.803 557.53 362.221 557.53 357.803V27.803C557.53 23.3847 553.948 19.803 549.53 19.803Z" fill="#E8EAF6"/>
<g id="Group_5">
<path id="Vector_7" fill-rule="evenodd" clip-rule="evenodd" d="M18 20H565V79H18V20Z" fill="#5267DF"/>
<g id="Group_6">
<path id="Vector_8" opacity="0.245" d="M60 66C68.8366 66 76 58.8366 76 50C76 41.1634 68.8366 34 60 34C51.1634 34 44 41.1634 44 50C44 58.8366 51.1634 66 60 66Z" fill="white"/>
<path id="Vector_9" opacity="0.104" d="M521 66C529.837 66 537 58.8366 537 50C537 41.1634 529.837 34 521 34C512.163 34 505 41.1634 505 50C505 58.8366 512.163 66 521 66Z" fill="white"/>
<g id="Group_7">
<path id="Vector_10" opacity="0.75" d="M208 40H94C92.3431 40 91 41.3431 91 43C91 44.6569 92.3431 46 94 46H208C209.657 46 211 44.6569 211 43C211 41.3431 209.657 40 208 40Z" fill="white"/>
<path id="Vector_11" opacity="0.25" d="M152 54H94C92.3431 54 91 55.3431 91 57C91 58.6569 92.3431 60 94 60H152C153.657 60 155 58.6569 155 57C155 55.3431 153.657 54 152 54Z" fill="white"/>
</g>
</g>
</g>
<g id="Group_8">
<g id="Group_9">
<path id="Vector_12" d="M331.53 112.803H86.53C82.1118 112.803 78.53 116.385 78.53 120.803V420.803C78.53 425.221 82.1118 428.803 86.53 428.803H331.53C335.948 428.803 339.53 425.221 339.53 420.803V120.803C339.53 116.385 335.948 112.803 331.53 112.803Z" fill="white"/>
<path id="Vector_13" d="M493.53 112.803H381.53C377.112 112.803 373.53 116.385 373.53 120.803V420.803C373.53 425.221 377.112 428.803 381.53 428.803H493.53C497.948 428.803 501.53 425.221 501.53 420.803V120.803C501.53 116.385 497.948 112.803 493.53 112.803Z" fill="white"/>
<path id="Vector_14" opacity="0.5" d="M274 151H160C158.343 151 157 152.343 157 154C157 155.657 158.343 157 160 157H274C275.657 157 277 155.657 277 154C277 152.343 275.657 151 274 151Z" fill="#242A45"/>
</g>
</g>
</g>
</g>
</g>
<g id="Group_10">
<path id="Vector_15" d="M126 177C134.837 177 142 169.837 142 161C142 152.163 134.837 145 126 145C117.163 145 110 152.163 110 161C110 169.837 117.163 177 126 177Z" fill="#F98E5D"/>
<path id="Vector_16" opacity="0.25" d="M479 135H397C395.343 135 394 136.343 394 138C394 139.657 395.343 141 397 141H479C480.657 141 482 139.657 482 138C482 136.343 480.657 135 479 135Z" fill="#242A45"/>
<path id="Vector_17" opacity="0.25" d="M479 155H397C395.343 155 394 156.343 394 158C394 159.657 395.343 161 397 161H479C480.657 161 482 159.657 482 158C482 156.343 480.657 155 479 155Z" fill="#242A45"/>
<path id="Vector_18" opacity="0.25" d="M479 175H397C395.343 175 394 176.343 394 178C394 179.657 395.343 181 397 181H479C480.657 181 482 179.657 482 178C482 176.343 480.657 175 479 175Z" fill="#242A45"/>
<path id="Vector_19" opacity="0.25" d="M479 195H397C395.343 195 394 196.343 394 198C394 199.657 395.343 201 397 201H479C480.657 201 482 199.657 482 198C482 196.343 480.657 195 479 195Z" fill="#242A45"/>
<path id="Vector_20" opacity="0.25" d="M479 229H397C395.343 229 394 230.343 394 232C394 233.657 395.343 235 397 235H479C480.657 235 482 233.657 482 232C482 230.343 480.657 229 479 229Z" fill="#242A45"/>
<path id="Vector_21" opacity="0.25" d="M479 249H397C395.343 249 394 250.343 394 252C394 253.657 395.343 255 397 255H479C480.657 255 482 253.657 482 252C482 250.343 480.657 249 479 249Z" fill="#242A45"/>
<path id="Vector_22" opacity="0.25" d="M479 269H397C395.343 269 394 270.343 394 272C394 273.657 395.343 275 397 275H479C480.657 275 482 273.657 482 272C482 270.343 480.657 269 479 269Z" fill="#242A45"/>
<path id="Vector_23" opacity="0.25" d="M218 165H160C158.343 165 157 166.343 157 168C157 169.657 158.343 171 160 171H218C219.657 171 221 169.657 221 168C221 166.343 219.657 165 218 165Z" fill="#242A45"/>
</g>
<g id="Group_11">
<path id="Vector_24" d="M126 233C134.837 233 142 225.837 142 217C142 208.163 134.837 201 126 201C117.163 201 110 208.163 110 217C110 225.837 117.163 233 126 233Z" fill="#6AC6D6"/>
<path id="Vector_25" opacity="0.5" d="M274 207H160C158.343 207 157 208.343 157 210C157 211.657 158.343 213 160 213H274C275.657 213 277 211.657 277 210C277 208.343 275.657 207 274 207Z" fill="#242A45"/>
<path id="Vector_26" opacity="0.25" d="M218 221H160C158.343 221 157 222.343 157 224C157 225.657 158.343 227 160 227H218C219.657 227 221 225.657 221 224C221 222.343 219.657 221 218 221Z" fill="#242A45"/>
</g>
<g id="Group_12">
<path id="Vector_27" d="M126 289C134.837 289 142 281.837 142 273C142 264.163 134.837 257 126 257C117.163 257 110 264.163 110 273C110 281.837 117.163 289 126 289Z" fill="#A47ED4"/>
<path id="Vector_28" opacity="0.5" d="M274 263H160C158.343 263 157 264.343 157 266C157 267.657 158.343 269 160 269H274C275.657 269 277 267.657 277 266C277 264.343 275.657 263 274 263Z" fill="#242A45"/>
<path id="Vector_29" opacity="0.25" d="M218 277H160C158.343 277 157 278.343 157 280C157 281.657 158.343 283 160 283H218C219.657 283 221 281.657 221 280C221 278.343 219.657 277 218 277Z" fill="#242A45"/>
</g>
<g id="Group_13">
<path id="Vector_30" d="M126 345C134.837 345 142 337.837 142 329C142 320.163 134.837 313 126 313C117.163 313 110 320.163 110 329C110 337.837 117.163 345 126 345Z" fill="#EC7878"/>
<path id="Vector_31" opacity="0.5" d="M274 319H160C158.343 319 157 320.343 157 322C157 323.657 158.343 325 160 325H274C275.657 325 277 323.657 277 322C277 320.343 275.657 319 274 319Z" fill="#242A45"/>
<path id="Vector_32" opacity="0.25" d="M218 333H160C158.343 333 157 334.343 157 336C157 337.657 158.343 339 160 339H218C219.657 339 221 337.657 221 336C221 334.343 219.657 333 218 333Z" fill="#242A45"/>
</g>
</g>
<defs>
<linearGradient id="paint0_linear_4_3" x1="571.062" y1="276.202" x2="111.849" y2="-29.1735" gradientUnits="userSpaceOnUse">
<stop stop-color="#151515"/>
<stop offset="1" stop-color="#3D3D3D"/>
</linearGradient>
</defs>
</svg>
