<svg width="579" height="386" fill="none" xmlns="http://www.w3.org/2000/svg"><path d="M552.5.5h-526C12.14.5.5 12.14.5 26.5v333c0 14.359 11.64 26 26 26h526c14.359 0 26-11.641 26-26v-333c0-14.36-11.641-26-26-26z" fill="#000"/><path d="M552.5.5h-526C12.14.5.5 12.14.5 26.5v333c0 14.359 11.64 26 26 26h526c14.359 0 26-11.641 26-26v-333c0-14.36-11.641-26-26-26z" fill="#777"/><path d="M551.73 2.5H27.5c-13.807 0-25 11.193-25 25v331.865c0 13.807 11.193 25 25 25h524.23c13.807 0 25-11.193 25-25V27.5c0-13.807-11.193-25-25-25z" fill="url(#paint0_linear_4_3)"/><path opacity=".1" d="M520.993 16.803H59.53a5 5 0 00-5 5v343.756a5 5 0 005 5h461.463a5 5 0 005-5V21.803a5 5 0 00-5-5z" fill="#2A2A2A"/><mask id="a" style="mask-type:alpha" maskUnits="userSpaceOnUse" x="21" y="19" width="537" height="347"><path d="M549.53 19.803h-520a8 8 0 00-8 8v330a8 8 0 008 8h520a8 8 0 008-8v-330a8 8 0 00-8-8z" fill="#fff"/></mask><g mask="url(#a)"><path d="M549.53 19.803h-520a8 8 0 00-8 8v330a8 8 0 008 8h520a8 8 0 008-8v-330a8 8 0 00-8-8z" fill="#E8EAF6"/><path fill-rule="evenodd" clip-rule="evenodd" d="M18 20h547v59H18V20z" fill="#5267DF"/><g fill="#fff"><path opacity=".245" d="M60 66c8.837 0 16-7.163 16-16s-7.163-16-16-16-16 7.163-16 16 7.163 16 16 16z"/><path opacity=".104" d="M521 66c8.837 0 16-7.163 16-16s-7.163-16-16-16-16 7.163-16 16 7.163 16 16 16z"/><path opacity=".75" d="M208 40H94a3 3 0 100 6h114a3 3 0 100-6z"/><path opacity=".25" d="M152 54H94a3 3 0 100 6h58a3 3 0 100-6z"/></g><path d="M331.53 112.803h-245a8 8 0 00-8 8v300a8 8 0 008 8h245a8 8 0 008-8v-300a8 8 0 00-8-8zm162 0h-112a8 8 0 00-8 8v300a8 8 0 008 8h112a8 8 0 008-8v-300a8 8 0 00-8-8z" fill="#fff"/><path opacity=".5" d="M274 151H160a3 3 0 100 6h114a3 3 0 100-6z" fill="#242A45"/></g><path d="M126 177c8.837 0 16-7.163 16-16s-7.163-16-16-16-16 7.163-16 16 7.163 16 16 16z" fill="#F98E5D"/><path opacity=".25" d="M479 135h-82a3 3 0 100 6h82a3 3 0 100-6zm0 20h-82a3 3 0 100 6h82a3 3 0 100-6zm0 20h-82a3 3 0 100 6h82a3 3 0 100-6zm0 20h-82a3 3 0 100 6h82a3 3 0 100-6zm0 34h-82a3 3 0 100 6h82a3 3 0 100-6zm0 20h-82a3 3 0 100 6h82a3 3 0 100-6zm0 20h-82a3 3 0 100 6h82a3 3 0 100-6zM218 165h-58a3 3 0 100 6h58a3 3 0 100-6z" fill="#242A45"/><path d="M126 233c8.837 0 16-7.163 16-16s-7.163-16-16-16-16 7.163-16 16 7.163 16 16 16z" fill="#6AC6D6"/><path opacity=".5" d="M274 207H160a3 3 0 100 6h114a3 3 0 100-6z" fill="#242A45"/><path opacity=".25" d="M218 221h-58a3 3 0 100 6h58a3 3 0 100-6z" fill="#242A45"/><path d="M126 289c8.837 0 16-7.163 16-16s-7.163-16-16-16-16 7.163-16 16 7.163 16 16 16z" fill="#A47ED4"/><path opacity=".5" d="M274 263H160a3 3 0 100 6h114a3 3 0 100-6z" fill="#242A45"/><path opacity=".25" d="M218 277h-58a3 3 0 100 6h58a3 3 0 100-6z" fill="#242A45"/><path d="M126 345c8.837 0 16-7.163 16-16s-7.163-16-16-16-16 7.163-16 16 7.163 16 16 16z" fill="#EC7878"/><path opacity=".5" d="M274 319H160a3 3 0 100 6h114a3 3 0 100-6z" fill="#242A45"/><path opacity=".25" d="M218 333h-58a3 3 0 100 6h58a3 3 0 100-6z" fill="#242A45"/><defs><linearGradient id="paint0_linear_4_3" x1="571.062" y1="276.202" x2="111.849" y2="-29.174" gradientUnits="userSpaceOnUse"><stop stop-color="#151515"/><stop offset="1" stop-color="#3D3D3D"/></linearGradient></defs></svg>